<svg id="Livello_2" data-name="Livello 2" xmlns="http://www.w3.org/2000/svg" viewBox="0 0 686.3 302.3">
  <defs>
    <style>
      .cls-1 {
        fill: #e31014;
      }

      .cls-2 {
        fill: #355faa;
      }

      .cls-3 {
        fill: #df0d14;
      }

      .cls-4 {
        fill: #fff;
      }

      .cls-5 {
        fill: #1a203c;
      }
    </style>
  </defs>
  <g>
    <path class="cls-1" d="M173.73,266.29V85.9h33.85L260,235.9q-.5-6.92-1.24-16.81t-1.11-20.51q-.36-10.62-.37-19.52V85.9H282V266.29h-33.6L196,116.29q.5,6.67,1.11,16.19t1.11,19.89q.5,10.38.5,19.27v94.65Z"/>
    <path class="cls-2" d="M394.32,268.76q-26.68,0-42.75-14.08t-16.06-38.55H361.7q0,13.59,8.9,21.37t23.72,7.79q14.58,0,23-7.91t8.4-21a28.49,28.49,0,0,0-5.44-17.29q-5.44-7.43-15.57-10.14L378.75,182q-18.28-4.94-28.78-18T339.46,132.6q0-14.82,6.55-25.82A45,45,0,0,1,364.67,89.6q12.1-6.16,28.17-6.18t28.3,6.18a46.43,46.43,0,0,1,19,17.18q6.79,11,6.8,25.57h-26.2q0-11.61-7.78-18.65t-20.14-7q-12.36,0-19.89,7t-7.54,18.41q0,9.13,5.07,15.32t14.21,8.65l26.68,7.16q18.78,4.95,29.66,19.28t10.87,33.85q0,16.06-7.17,27.8a48.14,48.14,0,0,1-20,18.17Q411.86,268.76,394.32,268.76Z"/>
  </g>
  <rect class="cls-3" x="597.23" y="11.56" width="71.95" height="73.74"/>
  <rect class="cls-4" x="626.37" y="24.94" width="13.68" height="45.8" transform="translate(585.37 681.05) rotate(-90)"/>
  <rect class="cls-4" x="625.79" y="24.35" width="13.68" height="46.98"/>
  <path class="cls-5" d="M499.71,287.19V264.82h10.74q11.2,0,17.77-6t4.9-18l-6-45.86q-2.14-15.93,4.77-27T551,154.37a28.88,28.88,0,0,1-19.1-12q-6.92-9.79-4.77-25.73l6-45.85q1.67-12-4.9-18t-17.77-6H499.71V24.35h10.74q14.07,0,24.69,5.45a36.19,36.19,0,0,1,16,15.8Q556.5,56,554.59,70.77l-6,45.85q-1.92,14.82,3.22,21.39t20.64,6.57h17.27l.52,22.37H572.49q-15.27,0-20.52,6.57t-3.34,21.39l6,45.86q1.92,14.53-3.46,25a35.92,35.92,0,0,1-16,15.93q-10.62,5.46-24.69,5.46Z"/>
  <path class="cls-5" d="M114.4,24.35V46.72H103.66q-11.22,0-17.78,6T81,70.77l6,45.85q2.14,15.94-4.77,27T63.09,157.17a28.82,28.82,0,0,1,19.09,12Q89.11,179,87,194.91l-6,45.86q-1.67,12,4.89,18t17.78,6H114.4v22.37H103.66q-14.09,0-24.7-5.46a36.12,36.12,0,0,1-16-15.79q-5.37-10.35-3.46-25.17l6-45.86q1.92-14.82-3.22-21.39T41.61,167H24.35l-.53-22.37H41.61q15.27,0,20.52-6.57t3.34-21.39l-6-45.85q-1.9-14.55,3.46-25A36,36,0,0,1,79,29.8q10.62-5.44,24.7-5.45Z"/>
</svg>
